<svg xmlns="http://www.w3.org/2000/svg" fill="none" viewBox="0 0 800 456">
  <defs>
    <radialGradient id="a" cx="0" cy="0" r="1" gradientTransform="matrix(0 158 -314 0 268.4 151.5)" gradientUnits="userSpaceOnUse">
      <stop offset="0" stop-color="#fff"/>
      <stop offset="1" stop-color="#d2d2d2"/>
    </radialGradient>
  </defs>

  <filter id="brutal-glitch" x="-50%" y="-50%" width="200%" height="200%">
    <feColorMatrix in="SourceGraphic" type="matrix" values="0 0 0 0 1  0 0 0 0 0  0 0 0 0 0  0 0 0 0.9 0" result="RED_COLOR"/>
    <feOffset in="RED_COLOR" dx="0" dy="0" result="RED_GHOST">
      <animate attributeName="dx" 
               values="0; -5; 0; -2; 0; -10; 0; 2; -1; 0; -3; 0" 
               keyTimes="0; 0.05; 0.1; 0.15; 0.2; 0.25; 0.3; 0.6; 0.65; 0.7; 0.75; 1" 
               dur="2.5s" 
               calcMode="discrete" 
               repeatCount="indefinite"/>
    </feOffset>
    <feColorMatrix in="SourceGraphic" type="matrix" values="0 0 0 0 0  0 0 0 0 1  0 0 0 0 0  0 0 0 0.9 0" result="GREEN_COLOR"/>
    <feOffset in="GREEN_COLOR" dx="0" dy="0" result="GREEN_GHOST">
      <animate attributeName="dx" 
               values="0; 5; 0; 3; 0; 10; 0; -2; 3; 0; 4; 0" 
               keyTimes="0; 0.05; 0.1; 0.15; 0.2; 0.25; 0.3; 0.6; 0.65; 0.7; 0.75; 1" 
               dur="2.5s" 
               calcMode="discrete" 
               repeatCount="indefinite"/>
    </feOffset>
    <feMerge>
      <feMergeNode in="RED_GHOST"/>
      <feMergeNode in="GREEN_GHOST"/>
      <feMergeNode in="SourceGraphic"/>
    </feMerge>
  </filter>

  <path fill="url(#a)" d="M188.1 9.2v2.6h1.8V9.2h2.5V7.6h-2.5V5.1H188v2.5h-2.5v1.6zm8.4 0v2.6h1.8V9.2h2.5V7.6h-2.5V5.1h-1.8v2.5H194v1.6zm8.4 0v2.6h1.8V9.2h2.5V7.6h-2.5V5.1h-1.8v2.5h-2.5v1.6zm8.4 0v2.6h1.8V9.2h2.5V7.6H215V5.1h-1.8v2.5h-2.5v1.6zm8.4 0v2.6h1.8V9.2h2.5V7.6h-2.5V5.1h-1.8v2.5h-2.5v1.6zm8.4 0v2.6h1.8V9.2h2.5V7.6h-2.5V5.1H230v2.5h-2.5v1.6zm8.4 0v2.6h1.8V9.2h2.5V7.6h-2.5V5.1h-1.8v2.5H236v1.6zm8.4 0v2.6h1.8V9.2h2.5V7.6h-2.5V5.1h-1.8v2.5h-2.5v1.6zm8.4 0v2.6h1.8V9.2h2.5V7.6H257V5.1h-1.8v2.5h-2.5v1.6zm8.4 0v2.6h1.8V9.2h2.5V7.6h-2.5V5.1h-1.8v2.5h-2.5v1.6zm8.4 0v2.6h1.8V9.2h2.5V7.6h-2.5V5.1H272v2.5h-2.5v1.6zm8.4 0v2.6h1.8V9.2h2.5V7.6h-2.5V5.1h-1.8v2.5H278v1.6zm8.4 0v2.6h1.8V9.2h2.5V7.6h-2.5V5.1h-1.8v2.5h-2.5v1.6zm8.4 0v2.6h1.8V9.2h2.5V7.6H299V5.1h-1.8v2.5h-2.5v1.6zm8.4 0v2.6h1.8V9.2h2.5V7.6h-2.5V5.1h-1.8v2.5h-2.5v1.6zm8.4 0v2.6h1.8V9.2h2.5V7.6h-2.5V5.1H314v2.5h-2.5v1.6zm8.4 0v2.6h1.8V9.2h2.5V7.6h-2.5V5.1h-1.8v2.5H320v1.6zm8.4 0v2.6h1.8V9.2h2.5V7.6h-2.5V5.1h-1.8v2.5h-2.5v1.6zm8.4 0v2.6h1.8V9.2h2.5V7.6H341V5.1h-1.8v2.5h-2.5v1.6zM121 25.2v2.6h1.8v-2.6h2.5v-1.6h-2.5v-2.5H121v2.5h-2.5v1.6zm8.4 0v2.6h1.8v-2.6h2.5v-1.6H131v-2.5h-1.8v2.5h-2.5v1.6zm8.4 0v2.6h1.8v-2.6h2.5v-1.6h-2.5v-2.5h-1.8v2.5h-2.5v1.6zm8.4 0v2.6h1.8v-2.6h2.5v-1.6H148v-2.5h-2v2.5h-2.5v1.6zm8.4 0v2.6h1.8v-2.6h2.5v-1.6h-2.5v-2.5h-1.8v2.5H152v1.6zm8.4 0v2.6h1.8v-2.6h2.5v-1.6h-2.5v-2.5H163v2.5h-2.5v1.6zm8.4 0v2.6h1.8v-2.6h2.5v-1.6H173v-2.5h-1.8v2.5h-2.5v1.6zm8.4 0v2.6h1.8v-2.6h2.5v-1.6h-2.5v-2.5h-1.8v2.5h-2.5v1.6zm8.4 0v2.6h1.8v-2.6h2.5v-1.6H190v-2.5h-2v2.5h-2.5v1.6zm8.4 0v2.6h1.8v-2.6h2.5v-1.6h-2.5v-2.5h-1.8v2.5H194v1.6zm8.4 0v2.6h1.8v-2.6h2.5v-1.6h-2.5v-2.5H205v2.5h-2.5v1.6zm8.4 0v2.6h1.8v-2.6h2.5v-1.6H215v-2.5h-1.8v2.5h-2.5v1.6zm8.4 0v2.6h1.8v-2.6h2.5v-1.6h-2.5v-2.5h-1.8v2.5h-2.5v1.6zm8.4 0v2.6h1.8v-2.6h2.5v-1.6H232v-2.5h-2v2.5h-2.5v1.6zm8.4 0v2.6h1.8v-2.6h2.5v-1.6h-2.5v-2.5h-1.8v2.5H236v1.6zm8.4 0v2.6h1.8v-2.6h2.5v-1.6h-2.5v-2.5H247v2.5h-2.5v1.6zm8.4 0v2.6h1.8v-2.6h2.5v-1.6H257v-2.5h-1.8v2.5h-2.5v1.6zm8.4 0v2.6h1.8v-2.6h2.5v-1.6h-2.5v-2.5h-1.8v2.5h-2.5v1.6zm8.4 0v2.6h1.8v-2.6h2.5v-1.6H274v-2.5h-2v2.5h-2.5v1.6zm8.4 0v2.6h1.8v-2.6h2.5v-1.6h-2.5v-2.5h-1.8v2.5H278v1.6zm8.4 0v2.6h1.8v-2.6h2.5v-1.6h-2.5v-2.5H289v2.5h-2.5v1.6zm8.4 0v2.6h1.8v-2.6h2.5v-1.6H299v-2.5h-1.8v2.5h-2.5v1.6zm8.4 0v2.6h1.8v-2.6h2.5v-1.6h-2.5v-2.5h-1.8v2.5h-2.5v1.6zm8.4 0v2.6h1.8v-2.6h2.5v-1.6H316v-2.5h-2v2.5h-2.5v1.6zm8.4 0v2.6h1.8v-2.6h2.5v-1.6h-2.5v-2.5h-1.8v2.5H320v1.6zm8.4 0v2.6h1.8v-2.6h2.5v-1.6h-2.5v-2.5H331v2.5h-2.5v1.6zm8.4 0v2.6h1.8v-2.6h2.5v-1.6H341v-2.5h-1.8v2.5h-2.5v1.6zm8.4 0v2.6h1.8v-2.6h2.5v-1.6h-2.5v-2.5h-1.8v2.5h-2.5v1.6zm8.4 0v2.6h1.8v-2.6h2.5v-1.6H358v-2.5h-2v2.5h-2.5v1.6zm8.4 0v2.6h1.8v-2.6h2.5v-1.6h-2.5v-2.5h-1.8v2.5H362v1.6zm8.4 0v2.6h1.8v-2.6h2.5v-1.6h-2.5v-2.5H373v2.5h-2.5v1.6zm8.4 0v2.6h1.8v-2.6h2.5v-1.6H383v-2.5h-1.8v2.5h-2.5v1.6zm8.4 0v2.6h1.8v-2.6h2.5v-1.6h-2.5v-2.5h-1.8v2.5h-2.5v1.6zm8.4 0v2.6h1.8v-2.6h2.5v-1.6H400v-2.5h-2v2.5h-2.5v1.6zM89 41.2v2.6h1.7v-2.6h5.1v2.6h1.8v-2.6h5v2.6h1.8v-2.6h2.5v-1.6h-2.5v-2.5h-1.7v2.5h-5.1v-2.5h-1.8v2.5h-5v-2.5H89v2.5h-2.5v1.6zm33.6 0v2.6h1.7v-2.6h5.1v2.6h1.8v-2.6h5v2.6h1.8v-2.6h2.5v-1.6H138v-2.5h-1.7v2.5H131v-2.5h-1.8v2.5h-5v-2.5h-1.8v2.5H120v1.6zm42 0v2.6h1.7v-2.6h5.1v2.6h1.8v-2.6h5v2.6h1.8v-2.6h2.5v-1.6H180v-2.5h-1.7v2.5H173v-2.5h-1.8v2.5h-5v-2.5h-1.8v2.5H162v1.6zm58.8 0v2.6h1.7v-2.6h5.1v2.6h1.8v-2.6h5v2.6h1.8v-2.6h2.5v-1.6h-2.5v-2.5H237v2.5h-5.1v-2.5H230v2.5h-5v-2.5h-1.8v2.5h-2.5v1.6zm66.4 0v2.6h1.7v-2.6h5.2v2.6h1.7v-2.6h2.5v-1.6h-2.5v-2.5h-1.7v2.5h-5.2v-2.5h-1.7v2.5h-2.5v1.6zm51.2 0v2.6h1.7v-2.6h5.1v2.6h1.8v-2.6h5v2.6h1.8v-2.6h2.5v-1.6h-2.5v-2.5h-1.7v2.5h-5.1v-2.5h-1.8v2.5h-5v-2.5H341v2.5h-2.5v1.6zm50.4 0v2.6h1.7v-2.6h5.1v2.6h1.8v-2.6h5v2.6h1.8v-2.6h2.5v-1.6h-2.5v-2.5H405v2.5h-5.1v-2.5H398v2.5h-5v-2.5h-1.8v2.5h-2.5v1.6zm33.6 0v2.6h1.7v-2.6h5.1v2.6h1.8v-2.6h5v2.6h1.8v-2.6h2.5v-1.6h-2.5v-2.5h-1.7v2.5h-5.1v-2.5h-1.8v2.5h-5v-2.5H425v2.5h-2.5v1.6zm-363 16v2.6h2v-2.6h2.5v-1.6H64v-2.5h-2v2.5h-2.5v1.6zm8.4 0v2.6h1.8v-2.6h2.5v-1.6h-2.5v-2.5h-1.8v2.5H68v1.6zm8.4 0v2.6h1.8v-2.6h2.5v-1.6h-2.5v-2.5h-1.8v2.5h-2.5v1.6zm8.4 0v2.6H89v-2.6h2.5v-1.6H89v-2.5h-1.8v2.5h-2.5v1.6zm26 0v2.6h1.7v-2.6h5.2v2.6h1.7v-2.6h2.5v-1.6H122v-2.5h-1.7v2.5H115v-2.5h-1.7v2.5h-2.5v1.6zm49.6 0v2.6h1.8v-2.6h2.5v-1.6h-2.5v-2.5h-1.8v2.5h-2.5v1.6zm59.6 0v2.6h1.7v-2.6h5.2v2.6h1.7v-2.6h2.5v-1.6H231v-2.5h-1.7v2.5h-5.2v-2.5h-1.7v2.5H220v1.6zm74.8 0v2.6h1.8v-2.6h2.5v-1.6H299v-2.5h-1.8v2.5h-2.5v1.6zm59.6 0v2.6h1.7v-2.6h5.2v2.6h1.7v-2.6h2.5v-1.6h-2.5v-2.5h-1.7v2.5h-5.2v-2.5H357v2.5h-2.5v1.6zm50.4 0v2.6h1.7v-2.6h5.2v2.6h1.7v-2.6h2.5v-1.6h-2.5v-2.5h-1.7v2.5H409v-2.5h-1.7v2.5h-2.5v1.6zm24.4 0v2.6h1.8v-2.6h2.5v-1.6h-2.5v-2.5h-1.8v2.5h-2.5v1.6zm8.4 0v2.6h1.8v-2.6h2.5v-1.6h-2.5v-2.5H440v2.5h-2.5v1.6zm8.4 0v2.6h1.8v-2.6h2.5v-1.6h-2.5v-2.5h-1.8v2.5H446v1.6zm8.4 0v2.6h1.8v-2.6h2.5v-1.6h-2.5v-2.5h-1.8v2.5h-2.5v1.6zm8.4 0v2.6h1.8v-2.6h2.5v-1.6H467v-2.5h-1.8v2.5h-2.5v1.6zm-420 16v2.6H47v-2.6h2.5v-1.6H47v-2.5h-1.8v2.5h-2.5v1.6zm8.4 0v2.6h1.8v-2.6H58v-1.6h-2.5v-2.5h-1.8v2.5h-2.5v1.6zm8.4 0v2.6h2v-2.6h2.5v-1.6H64v-2.5h-2v2.5h-2.5v1.6zm8.4 0v2.6h1.8v-2.6h2.5v-1.6h-2.5v-2.5h-1.8v2.5H68v1.6zm26 0v2.6h1.7v-2.6h5.2v2.6h1.7v-2.6h2.5v-1.6H105v-2.5h-1.7v2.5h-5.2v-2.5h-1.7v2.5H94v1.6zm58 0v2.6h1.8v-2.6h2.5v-1.6h-2.5v-2.5h-1.8v2.5H152v1.6zm67.2 0v2.6h1.8v-2.6h2.5v-1.6h-2.5v-2.5h-1.8v2.5h-2.5v1.6zm84 0v2.6h1.8v-2.6h2.5v-1.6h-2.5v-2.5h-1.8v2.5h-2.5v1.6zm67.2 0v2.6h1.8v-2.6h2.5v-1.6h-2.5v-2.5h-1.8v2.5h-2.5v1.6zm51.2 0v2.6h1.7v-2.6h5.2v2.6h1.7v-2.6h2.5v-1.6h-2.5v-2.5H431v2.5h-5.2v-2.5h-1.7v2.5h-2.5v1.6zm32.8 0v2.6h1.8v-2.6h2.5v-1.6h-2.5v-2.5h-1.8v2.5h-2.5v1.6zm8.4 0v2.6h1.8v-2.6h2.5v-1.6H467v-2.5h-1.8v2.5h-2.5v1.6zm8.4 0v2.6h1.8v-2.6h2.5v-1.6h-2.5v-2.5h-1.8v2.5h-2.5v1.6zm8.4 0v2.6h1.8v-2.6h2.5v-1.6h-2.5v-2.5H482v2.5h-2.5v1.6zm-452.8 16v2.6H31v-2.6h5.2v2.6h1.7v-2.6h2.5v-1.6H38v-2.5h-1.7v2.5H31v-2.5h-1.7v2.5h-2.5v1.6zm24.4 0v2.6h1.8v-2.6H58v-1.6h-2.5v-2.5h-1.8v2.5h-2.5v1.6zm33.6 0v2.6H89v-2.6h2.5v-1.6H89v-2.5h-1.8v2.5h-2.5v1.6zm58.8 0v2.6h1.8v-2.6h2.5v-1.6h-2.5v-2.5H146v2.5h-2.5v1.6zm50.4 0v2.6h1.8v-2.6h2.5v-1.6h-2.5v-2.5h-1.8v2.5H194v1.6zm134.4 0v2.6h1.8v-2.6h2.5v-1.6h-2.5v-2.5h-1.8v2.5h-2.5v1.6zm50.4 0v2.6h1.8v-2.6h2.5v-1.6H383v-2.5h-1.8v2.5h-2.5v1.6zm58.8 0v2.6h1.8v-2.6h2.5v-1.6h-2.5v-2.5H440v2.5h-2.5v1.6zm33.6 0v2.6h1.8v-2.6h2.5v-1.6h-2.5v-2.5h-1.8v2.5h-2.5v1.6zm17.6 0v2.6h1.7v-2.6h5.2v2.6h1.7v-2.6h2.5v-1.6h-2.5v-2.5h-1.7v2.5H493v-2.5h-1.7v2.5h-2.5v1.6zm-289.7-1.6v1.6h126v-1.6zm-5 9.8v13.2h1.7V97.4zm134.3 0v13.2h1.8V97.4zM20 105.2v2.6h2v-2.6h2.5v-1.6H22v-2.5h-2v2.5h-2.5v1.6zm17.6 0v2.6h1.7v-2.6h5.2v2.6h1.7v-2.6h2.5v-1.6h-2.5v-2.5h-1.7v2.5h-5.2v-2.5h-1.7v2.5h-2.5v1.6zm24.4 0v2.6h2v-2.6h2.5v-1.6H64v-2.5h-2v2.5h-2.5v1.6zm16.8 0v2.6h1.8v-2.6h2.5v-1.6h-2.5v-2.5h-1.8v2.5h-2.5v1.6zm16.8 0v2.6h1.8v-2.6h2.5v-1.6h-2.5v-2.5h-1.8v2.5h-2.5v1.6zm16.8 0v2.6h1.8v-2.6h2.5v-1.6h-2.5v-2.5h-1.8v2.5H110v1.6zm16.8 0v2.6h1.8v-2.6h2.5v-1.6H131v-2.5h-1.8v2.5h-2.5v1.6zm16.8 0v2.6h1.8v-2.6h2.5v-1.6h-2.5v-2.5H146v2.5h-2.5v1.6zm16.8 0v2.6h1.8v-2.6h2.5v-1.6h-2.5v-2.5h-1.8v2.5h-2.5v1.6zm193.2 0v2.6h1.8v-2.6h2.5v-1.6h-2.5v-2.5H356v2.5h-2.5v1.6zm16.8 0v2.6h1.8v-2.6h2.5v-1.6h-2.5v-2.5h-1.8v2.5h-2.5v1.6zm16.8 0v2.6h1.8v-2.6h2.5v-1.6h-2.5v-2.5h-1.8v2.5h-2.5v1.6zm16.8 0v2.6h1.8v-2.6h2.5v-1.6h-2.5v-2.5h-1.8v2.5H404v1.6zm16.8 0v2.6h1.8v-2.6h2.5v-1.6H425v-2.5h-1.8v2.5h-2.5v1.6zm16.8 0v2.6h1.8v-2.6h2.5v-1.6h-2.5v-2.5H440v2.5h-2.5v1.6zm16.8 0v2.6h1.8v-2.6h2.5v-1.6h-2.5v-2.5h-1.8v2.5h-2.5v1.6zm18.4 0v2.6h1.7v-2.6h5.1v2.6h1.8v-2.6h5v2.6h1.8v-2.6h2.5v-1.6h-2.5v-2.5H489v2.5h-5.1v-2.5H482v2.5h-5v-2.5h-1.8v2.5h-2.5v1.6zm32 0v2.6h1.8v-2.6h2.5v-1.6H509v-2.5h-1.8v2.5h-2.5v1.6zm-310.8 8.2v13.2h1.8v-13.2zm134.4 0v13.2h1.8v-13.2zm-319.2 7.8v2.6h1.8v-2.6H16v-1.6h-2.5v-2.5h-1.8v2.5H9.2v1.6zm25.2 0v2.6h1.8v-2.6h2.5v-1.6h-2.5v-2.5h-1.8v2.5h-2.5v1.6zm33.6 0v2.6h1.8v-2.6h2.5v-1.6h-2.5v-2.5h-1.8v2.5H68v1.6zm67.2 0v2.6h1.8v-2.6h2.5v-1.6h-2.5v-2.5h-1.8v2.5h-2.5v1.6zm260.4 0v2.6h1.8v-2.6h2.5v-1.6h-2.5v-2.5H398v2.5h-2.5v1.6zm58.8 0v2.6h1.8v-2.6h2.5v-1.6h-2.5v-2.5h-1.8v2.5h-2.5v1.6zm33.6 0v2.6h1.8v-2.6h2.5v-1.6h-2.5v-2.5h-1.8v2.5H488v1.6zm25.2 0v2.6h1.8v-2.6h2.5v-1.6h-2.5v-2.5h-1.8v2.5h-2.5v1.6zm-319.2 8.2v13.2h1.8v-13.2zM3.3 137.2v2.6h1.8v-2.6h2.5v-1.6H5v-2.5H3.3v2.5H.8v1.6zm25.2 0v2.6h1.8v-2.6h2.5v-1.6h-2.5v-2.5h-1.8v2.5H26v1.6zm33.6 0v2.6H64v-2.6h2.5v-1.6H64v-2.5h-2v2.5h-2.5v1.6zm67.2 0v2.6h1.8v-2.6h2.5v-1.6H131v-2.5h-1.8v2.5h-2.5v1.6zm151.2 0v2.6h1.8v-2.6h2.5v-1.6h-2.5v-2.5h-1.8v2.5H278v1.6zm50.4 0v2.6h1.8v-2.6h2.5v-1.6h-2.5v-2.5h-1.8v2.5h-2.5v1.6zm75.6 0v2.6h1.8v-2.6h2.5v-1.6h-2.5v-2.5h-1.8v2.5H404v1.6zm58.8 0v2.6h1.8v-2.6h2.5v-1.6H467v-2.5h-1.8v2.5h-2.5v1.6zm33.6 0v2.6h1.8v-2.6h2.5v-1.6h-2.5v-2.5h-1.8v2.5h-2.5v1.6zm25.2 0v2.6h1.8v-2.6h2.5v-1.6h-2.5v-2.5H524v2.5h-2.5v1.6zm-238.5-1.6v1.6h42v-1.6zm-89 9.8v13.2h1.7v-13.2zm115 0 5 13.2h1.7l-4.8-13.2zM3.3 153.2v2.6h1.8v-2.6h2.5v-1.6H5v-2.5H3.3v2.5H.8v1.6zm25.2 0v2.6h1.8v-2.6h2.5v-1.6h-2.5v-2.5h-1.8v2.5H26v1.6zm33.6 0v2.6H64v-2.6h2.5v-1.6H64v-2.5h-2v2.5h-2.5v1.6zm67.2 0v2.6h1.8v-2.6h2.5v-1.6H131v-2.5h-1.8v2.5h-2.5v1.6zm126 0v2.6h1.8v-2.6h2.5v-1.6H257v-2.5h-1.8v2.5h-2.5v1.6zm151.2 0v2.6h1.8v-2.6h2.5v-1.6h-2.5v-2.5h-1.8v2.5H404v1.6zm58.8 0v2.6h1.8v-2.6h2.5v-1.6H467v-2.5h-1.8v2.5h-2.5v1.6zm42 0v2.6h1.8v-2.6h2.5v-1.6H509v-2.5h-1.8v2.5h-2.5v1.6zm25.2 0v2.6h1.8v-2.6h2.5v-1.6h-2.5v-2.5h-1.8v2.5H530v1.6zm-336 8.2v13.2h1.8v-13.2zm58.8 0v13.2h1.8v-13.2zm6 0 4.8 13.2h1.8l-4.8-13.2zm58.7 0 5 13.2h1.7l-4.8-13.2zM3.3 169.2v2.6h1.8v-2.6h2.5v-1.6H5v-2.5H3.3v2.5H.8v1.6zm25.2 0v2.6h1.8v-2.6h2.5v-1.6h-2.5v-2.5h-1.8v2.5H26v1.6zm33.6 0v2.6H64v-2.6h2.5v-1.6H64v-2.5h-2v2.5h-2.5v1.6zm67.2 0v2.6h1.8v-2.6h2.5v-1.6H131v-2.5h-1.8v2.5h-2.5v1.6zm277.2 0v2.6h1.8v-2.6h2.5v-1.6h-2.5v-2.5h-1.8v2.5H404v1.6zm58.8 0v2.6h1.8v-2.6h2.5v-1.6H467v-2.5h-1.8v2.5h-2.5v1.6zm42 0v2.6h1.8v-2.6h2.5v-1.6H509v-2.5h-1.8v2.5h-2.5v1.6zm25.2 0v2.6h1.8v-2.6h2.5v-1.6h-2.5v-2.5h-1.8v2.5H530v1.6zm-336 8.2v13.2h1.8v-13.2zm58.8 0v13.2h1.8v-13.2zm14.3 0 5 13.2h1.7l-4.8-13.2zm58.8 0 5 13.2h1.7l-4.8-13.2zm-325 7.8v2.6H5v-2.6h2.5v-1.6H5v-2.5H3.3v2.5H.8v1.6zm17.5 0v2.6h1.7v-2.6h5.2v2.6h1.7v-2.6H32v-1.6h-2.5v-2.5h-1.7v2.5h-5.2v-2.5H21v2.5h-2.5v1.6zm24.4 0v2.6h1.8v-2.6h2.5v-1.6H47v-2.5h-1.8v2.5h-2.5v1.6zm16.8 0v2.6H64v-2.6h2.5v-1.6H64v-2.5h-2v2.5h-2.5v1.6zm16.8 0v2.6h1.8v-2.6h2.5v-1.6h-2.5v-2.5h-1.8v2.5h-2.5v1.6zm16.8 0v2.6h1.8v-2.6h2.5v-1.6h-2.5v-2.5h-1.8v2.5h-2.5v1.6zm16.8 0v2.6h1.8v-2.6h2.5v-1.6h-2.5v-2.5h-1.8v2.5H110v1.6zm17.6 0v2.6h1.7v-2.6h5.2v2.6h1.7v-2.6h2.5v-1.6h-2.5v-2.5H137v2.5h-5.2v-2.5h-1.7v2.5h-2.5v1.6zm24.4 0v2.6h1.8v-2.6h2.5v-1.6h-2.5v-2.5h-1.8v2.5H152v1.6zm16.8 0v2.6h1.8v-2.6h2.5v-1.6H173v-2.5h-1.8v2.5h-2.5v1.6zm193.2 0v2.6h1.8v-2.6h2.5v-1.6h-2.5v-2.5h-1.8v2.5H362v1.6zm16.8 0v2.6h1.8v-2.6h2.5v-1.6H383v-2.5h-1.8v2.5h-2.5v1.6zm17.6 0v2.6h1.7v-2.6h5.2v2.6h1.7v-2.6h2.5v-1.6h-2.5v-2.5h-1.7v2.5h-5.2v-2.5H399v2.5h-2.5v1.6zm24.4 0v2.6h1.8v-2.6h2.5v-1.6H425v-2.5h-1.8v2.5h-2.5v1.6zm16.8 0v2.6h1.8v-2.6h2.5v-1.6h-2.5v-2.5H440v2.5h-2.5v1.6zm16.8 0v2.6h1.8v-2.6h2.5v-1.6h-2.5v-2.5h-1.8v2.5h-2.5v1.6zm16.8 0v2.6h1.8v-2.6h2.5v-1.6h-2.5v-2.5h-1.8v2.5h-2.5v1.6zm16.8 0v2.6h1.8v-2.6h2.5v-1.6h-2.5v-2.5h-1.8v2.5H488v1.6zm16.8 0v2.6h1.8v-2.6h2.5v-1.6H509v-2.5h-1.8v2.5h-2.5v1.6zm25.2 0v2.6h1.8v-2.6h2.5v-1.6h-2.5v-2.5h-1.8v2.5H530v1.6zm-336 8.2v13.2h1.8v-13.2zm58.8 0v13.2h1.8v-13.2zm22.7 0 5 13.2h1.7l-4.8-13.2zm58.8 0 5 13.2h1.7l-4.8-13.2zm-325 7.8v2.6h1.7v-2.6H16v-1.6h-2.5v-2.5h-1.8v2.5H9.2v1.6zm16.7 0v2.6h1.8v-2.6h2.5v-1.6h-2.5v-2.5h-1.8v2.5H26v1.6zm42.8 0v2.6H73v-2.6h5.2v2.6h1.7v-2.6h2.5v-1.6H80v-2.5h-1.7v2.5H73v-2.5h-1.7v2.5h-2.5v1.6zm66.4 0v2.6h1.8v-2.6h2.5v-1.6h-2.5v-2.5h-1.8v2.5h-2.5v1.6zm260.4 0v2.6h1.8v-2.6h2.5v-1.6h-2.5v-2.5H398v2.5h-2.5v1.6zm58.8 0v2.6h1.8v-2.6h2.5v-1.6h-2.5v-2.5h-1.8v2.5h-2.5v1.6zm33.6 0v2.6h1.8v-2.6h2.5v-1.6h-2.5v-2.5h-1.8v2.5H488v1.6zm33.6 0v2.6h1.8v-2.6h2.5v-1.6h-2.5v-2.5H524v2.5h-2.5v1.6zm-504 16v2.6H22v-2.6h2.5v-1.6H22v-2.5h-2v2.5h-2.5v1.6zm16.8 0v2.6h1.8v-2.6h2.5v-1.6h-2.5v-2.5h-1.8v2.5h-2.5v1.6zm42 0v2.6h1.8v-2.6h2.5v-1.6h-2.5v-2.5h-1.8v2.5h-2.5v1.6zm59.6 0v2.6h1.7v-2.6h5.2v2.6h1.7v-2.6h2.5v-1.6h-2.5v-2.5h-1.7v2.5h-5.2v-2.5h-1.7v2.5H136v1.6zm58 0v2.6h1.8v-2.6h2.5v-1.6h-2.5v-2.5h-1.8v2.5H194v1.6zm58.8 0v2.6h1.8v-2.6h2.5v-1.6H257v-2.5h-1.8v2.5h-2.5v1.6zm33.6 0v2.6h1.8v-2.6h2.5v-1.6h-2.5v-2.5h-1.8v2.5h-2.5v1.6zm58.8 0v2.6h1.8v-2.6h2.5v-1.6h-2.5v-2.5h-1.8v2.5h-2.5v1.6zm42 0v2.6h1.8v-2.6h2.5v-1.6h-2.5v-2.5h-1.8v2.5h-2.5v1.6zm58.8 0v2.6h1.8v-2.6h2.5v-1.6h-2.5v-2.5h-1.8v2.5H446v1.6zm33.6 0v2.6h1.8v-2.6h2.5v-1.6h-2.5v-2.5H482v2.5h-2.5v1.6zm33.6 0v2.6h1.8v-2.6h2.5v-1.6h-2.5v-2.5h-1.8v2.5h-2.5v1.6zm-314.1-1.6v1.6H252v-1.6zm92.4 0v1.6h50.4v-1.6zM37.7 233.2v2.6h1.7v-2.6h5.2v2.6h1.7v-2.6h2.5v-1.6h-2.5v-2.5h-1.7v2.5h-5.2v-2.5h-1.7v2.5h-2.5v1.6zm58.8 0v2.6h1.7v-2.6h5.2v2.6h1.7v-2.6h2.5v-1.6h-2.5v-2.5h-1.7v2.5h-5.2v-2.5h-1.7v2.5H94v1.6zm58.8 0v2.6h1.7v-2.6h5.2v2.6h1.7v-2.6h2.5v-1.6H164v-2.5h-1.7v2.5H157v-2.5h-1.7v2.5h-2.5v1.6zm66.4 0v2.6h1.8v-2.6h2.5v-1.6h-2.5v-2.5h-1.8v2.5h-2.5v1.6zm84 0v2.6h1.8v-2.6h2.5v-1.6h-2.5v-2.5h-1.8v2.5h-2.5v1.6zm75.6 0v2.6h1.8v-2.6h2.5v-1.6H383v-2.5h-1.8v2.5h-2.5v1.6zm58.8 0v2.6h1.8v-2.6h2.5v-1.6h-2.5v-2.5H440v2.5h-2.5v1.6zm33.6 0v2.6h1.8v-2.6h2.5v-1.6h-2.5v-2.5h-1.8v2.5h-2.5v1.6zm33.6 0v2.6h1.8v-2.6h2.5v-1.6H509v-2.5h-1.8v2.5h-2.5v1.6zm-453.6 16v2.6h1.8v-2.6H58v-1.6h-2.5v-2.5h-1.8v2.5h-2.5v1.6zm8.4 0v2.6H64v-2.6h2.5v-1.6H64v-2.5h-2v2.5h-2.5v1.6zm8.4 0v2.6h1.8v-2.6h2.5v-1.6h-2.5v-2.5h-1.8v2.5H68v1.6zm8.4 0v2.6h1.8v-2.6h2.5v-1.6h-2.5v-2.5h-1.8v2.5h-2.5v1.6zm8.4 0v2.6h1.8v-2.6h2.5v-1.6H89v-2.5h-1.8v2.5h-2.5v1.6zm8.4 0v2.6h1.8v-2.6h2.5v-1.6h-2.5v-2.5h-1.8v2.5h-2.5v1.6zm8.4 0v2.6h1.8v-2.6h2.5v-1.6h-2.5v-2.5H104v2.5h-2.5v1.6zm8.4 0v2.6h1.8v-2.6h2.5v-1.6h-2.5v-2.5h-1.8v2.5H110v1.6zm8.4 0v2.6h1.8v-2.6h2.5v-1.6h-2.5v-2.5h-1.8v2.5h-2.5v1.6zm8.4 0v2.6h1.8v-2.6h2.5v-1.6H131v-2.5h-1.8v2.5h-2.5v1.6zm8.4 0v2.6h1.8v-2.6h2.5v-1.6h-2.5v-2.5h-1.8v2.5h-2.5v1.6zm8.4 0v2.6h1.8v-2.6h2.5v-1.6h-2.5v-2.5H146v2.5h-2.5v1.6zm8.4 0v2.6h1.8v-2.6h2.5v-1.6h-2.5v-2.5h-1.8v2.5H152v1.6zm8.4 0v2.6h1.8v-2.6h2.5v-1.6h-2.5v-2.5h-1.8v2.5h-2.5v1.6zm8.4 0v2.6h1.8v-2.6h2.5v-1.6H173v-2.5h-1.8v2.5h-2.5v1.6zm8.4 0v2.6h1.8v-2.6h2.5v-1.6h-2.5v-2.5h-1.8v2.5h-2.5v1.6zm8.4 0v2.6h1.8v-2.6h2.5v-1.6h-2.5v-2.5H188v2.5h-2.5v1.6zm8.4 0v2.6h1.8v-2.6h2.5v-1.6h-2.5v-2.5h-1.8v2.5H194v1.6zm8.4 0v2.6h1.8v-2.6h2.5v-1.6h-2.5v-2.5h-1.8v2.5h-2.5v1.6zm8.4 0v2.6h1.8v-2.6h2.5v-1.6H215v-2.5h-1.8v2.5h-2.5v1.6zm8.4 0v2.6h1.8v-2.6h2.5v-1.6h-2.5v-2.5h-1.8v2.5h-2.5v1.6zm8.4 0v2.6h1.8v-2.6h2.5v-1.6h-2.5v-2.5H230v2.5h-2.5v1.6zm8.4 0v2.6h1.8v-2.6h2.5v-1.6h-2.5v-2.5h-1.8v2.5H236v1.6zm8.4 0v2.6h1.8v-2.6h2.5v-1.6h-2.5v-2.5h-1.8v2.5h-2.5v1.6zm8.4 0v2.6h1.8v-2.6h2.5v-1.6H257v-2.5h-1.8v2.5h-2.5v1.6zm8.4 0v2.6h1.8v-2.6h2.5v-1.6h-2.5v-2.5h-1.8v2.5h-2.5v1.6zm8.4 0v2.6h1.8v-2.6h2.5v-1.6h-2.5v-2.5H272v2.5h-2.5v1.6zm8.4 0v2.6h1.8v-2.6h2.5v-1.6h-2.5v-2.5h-1.8v2.5H278v1.6zm8.4 0v2.6h1.8v-2.6h2.5v-1.6h-2.5v-2.5h-1.8v2.5h-2.5v1.6zm8.4 0v2.6h1.8v-2.6h2.5v-1.6H299v-2.5h-1.8v2.5h-2.5v1.6zm8.4 0v2.6h1.8v-2.6h2.5v-1.6h-2.5v-2.5h-1.8v2.5h-2.5v1.6zm8.4 0v2.6h1.8v-2.6h2.5v-1.6h-2.5v-2.5H314v2.5h-2.5v1.6zm8.4 0v2.6h1.8v-2.6h2.5v-1.6h-2.5v-2.5h-1.8v2.5H320v1.6zm8.4 0v2.6h1.8v-2.6h2.5v-1.6h-2.5v-2.5h-1.8v2.5h-2.5v1.6zm8.4 0v2.6h1.8v-2.6h2.5v-1.6H341v-2.5h-1.8v2.5h-2.5v1.6zm8.4 0v2.6h1.8v-2.6h2.5v-1.6h-2.5v-2.5h-1.8v2.5h-2.5v1.6zm8.4 0v2.6h1.8v-2.6h2.5v-1.6h-2.5v-2.5H356v2.5h-2.5v1.6zm8.4 0v2.6h1.8v-2.6h2.5v-1.6h-2.5v-2.5h-1.8v2.5H362v1.6zm8.4 0v2.6h1.8v-2.6h2.5v-1.6h-2.5v-2.5h-1.8v2.5h-2.5v1.6zm8.4 0v2.6h1.8v-2.6h2.5v-1.6H383v-2.5h-1.8v2.5h-2.5v1.6zm8.4 0v2.6h1.8v-2.6h2.5v-1.6h-2.5v-2.5h-1.8v2.5h-2.5v1.6zm8.4 0v2.6h1.8v-2.6h2.5v-1.6h-2.5v-2.5H398v2.5h-2.5v1.6zm8.4 0v2.6h1.8v-2.6h2.5v-1.6h-2.5v-2.5h-1.8v2.5H404v1.6zm8.4 0v2.6h1.8v-2.6h2.5v-1.6h-2.5v-2.5h-1.8v2.5h-2.5v1.6zm8.4 0v2.6h1.8v-2.6h2.5v-1.6H425v-2.5h-1.8v2.5h-2.5v1.6zm8.4 0v2.6h1.8v-2.6h2.5v-1.6h-2.5v-2.5h-1.8v2.5h-2.5v1.6zm8.4 0v2.6h1.8v-2.6h2.5v-1.6h-2.5v-2.5H440v2.5h-2.5v1.6zm8.4 0v2.6h1.8v-2.6h2.5v-1.6h-2.5v-2.5h-1.8v2.5H446v1.6zm8.4 0v2.6h1.8v-2.6h2.5v-1.6h-2.5v-2.5h-1.8v2.5h-2.5v1.6zm8.4 0v2.6h1.8v-2.6h2.5v-1.6H467v-2.5h-1.8v2.5h-2.5v1.6zm8.4 0v2.6h1.8v-2.6h2.5v-1.6h-2.5v-2.5h-1.8v2.5h-2.5v1.6zm8.4 0v2.6h1.8v-2.6h2.5v-1.6h-2.5v-2.5H482v2.5h-2.5v1.6zm8.4 0v2.6h1.8v-2.6h2.5v-1.6h-2.5v-2.5h-1.8v2.5H488v1.6zM79 265.2v2.6h1.8v-2.6h2.5v-1.6h-2.5v-2.5H79v2.5h-2.5v1.6zm8.4 0v2.6h1.8v-2.6h2.5v-1.6H89v-2.5h-1.8v2.5h-2.5v1.6zm8.4 0v2.6h1.8v-2.6h2.5v-1.6h-2.5v-2.5h-1.8v2.5h-2.5v1.6zm8.4 0v2.6h1.8v-2.6h2.5v-1.6H106v-2.5h-2v2.5h-2.5v1.6zm67.2 0v2.6h1.8v-2.6h2.5v-1.6H173v-2.5h-1.8v2.5h-2.5v1.6zm58.8 0v2.6h1.8v-2.6h2.5v-1.6H232v-2.5h-2v2.5h-2.5v1.6zm67.2 0v2.6h1.8v-2.6h2.5v-1.6H299v-2.5h-1.8v2.5h-2.5v1.6zm50.4 0v2.6h1.8v-2.6h2.5v-1.6h-2.5v-2.5h-1.8v2.5h-2.5v1.6zm50.4 0v2.6h1.8v-2.6h2.5v-1.6H400v-2.5h-2v2.5h-2.5v1.6zm33.6 0v2.6h1.8v-2.6h2.5v-1.6h-2.5v-2.5h-1.8v2.5h-2.5v1.6zm8.4 0v2.6h1.8v-2.6h2.5v-1.6H442v-2.5h-2v2.5h-2.5v1.6zm8.4 0v2.6h1.8v-2.6h2.5v-1.6h-2.5v-2.5h-1.8v2.5H446v1.6zm8.4 0v2.6h1.8v-2.6h2.5v-1.6h-2.5v-2.5H457v2.5h-2.5v1.6zm8.4 0v2.6h1.8v-2.6h2.5v-1.6H467v-2.5h-1.8v2.5h-2.5v1.6zm8.4 0v2.6h1.8v-2.6h2.5v-1.6h-2.5v-2.5h-1.8v2.5h-2.5v1.6zm-361.2 16v2.6h1.8v-2.6h2.5v-1.6h-2.5v-2.5h-1.8v2.5H110v1.6zm8.4 0v2.6h1.8v-2.6h2.5v-1.6h-2.5v-2.5H121v2.5h-2.5v1.6zm8.4 0v2.6h1.8v-2.6h2.5v-1.6H131v-2.5h-1.8v2.5h-2.5v1.6zm8.4 0v2.6h1.8v-2.6h2.5v-1.6h-2.5v-2.5h-1.8v2.5h-2.5v1.6zm8.4 0v2.6h1.8v-2.6h2.5v-1.6H148v-2.5h-2v2.5h-2.5v1.6zm8.4 0v2.6h1.8v-2.6h2.5v-1.6h-2.5v-2.5h-1.8v2.5H152v1.6zm8.4 0v2.6h1.8v-2.6h2.5v-1.6h-2.5v-2.5H163v2.5h-2.5v1.6zm8.4 0v2.6h1.8v-2.6h2.5v-1.6H173v-2.5h-1.8v2.5h-2.5v1.6zm8.4 0v2.6h1.8v-2.6h2.5v-1.6h-2.5v-2.5h-1.8v2.5h-2.5v1.6zm8.4 0v2.6h1.8v-2.6h2.5v-1.6H190v-2.5h-2v2.5h-2.5v1.6zm8.4 0v2.6h1.8v-2.6h2.5v-1.6h-2.5v-2.5h-1.8v2.5H194v1.6zm8.4 0v2.6h1.8v-2.6h2.5v-1.6h-2.5v-2.5H205v2.5h-2.5v1.6zm8.4 0v2.6h1.8v-2.6h2.5v-1.6H215v-2.5h-1.8v2.5h-2.5v1.6zm8.4 0v2.6h1.8v-2.6h2.5v-1.6h-2.5v-2.5h-1.8v2.5h-2.5v1.6zm8.4 0v2.6h1.8v-2.6h2.5v-1.6H232v-2.5h-2v2.5h-2.5v1.6zm8.4 0v2.6h1.8v-2.6h2.5v-1.6h-2.5v-2.5h-1.8v2.5H236v1.6zm8.4 0v2.6h1.8v-2.6h2.5v-1.6h-2.5v-2.5H247v2.5h-2.5v1.6zm8.4 0v2.6h1.8v-2.6h2.5v-1.6H257v-2.5h-1.8v2.5h-2.5v1.6zm8.4 0v2.6h1.8v-2.6h2.5v-1.6h-2.5v-2.5h-1.8v2.5h-2.5v1.6zm8.4 0v2.6h1.8v-2.6h2.5v-1.6H274v-2.5h-2v2.5h-2.5v1.6zm8.4 0v2.6h1.8v-2.6h2.5v-1.6h-2.5v-2.5h-1.8v2.5H278v1.6zm8.4 0v2.6h1.8v-2.6h2.5v-1.6h-2.5v-2.5H289v2.5h-2.5v1.6zm8.4 0v2.6h1.8v-2.6h2.5v-1.6H299v-2.5h-1.8v2.5h-2.5v1.6zm8.4 0v2.6h1.8v-2.6h2.5v-1.6h-2.5v-2.5h-1.8v2.5h-2.5v1.6zm8.4 0v2.6h1.8v-2.6h2.5v-1.6H316v-2.5h-2v2.5h-2.5v1.6zm8.4 0v2.6h1.8v-2.6h2.5v-1.6h-2.5v-2.5h-1.8v2.5H320v1.6zm8.4 0v2.6h1.8v-2.6h2.5v-1.6h-2.5v-2.5H331v2.5h-2.5v1.6zm8.4 0v2.6h1.8v-2.6h2.5v-1.6H341v-2.5h-1.8v2.5h-2.5v1.6zm8.4 0v2.6h1.8v-2.6h2.5v-1.6h-2.5v-2.5h-1.8v2.5h-2.5v1.6zm8.4 0v2.6h1.8v-2.6h2.5v-1.6H358v-2.5h-2v2.5h-2.5v1.6zm8.4 0v2.6h1.8v-2.6h2.5v-1.6h-2.5v-2.5h-1.8v2.5H362v1.6zm8.4 0v2.6h1.8v-2.6h2.5v-1.6h-2.5v-2.5H373v2.5h-2.5v1.6zm8.4 0v2.6h1.8v-2.6h2.5v-1.6H383v-2.5h-1.8v2.5h-2.5v1.6zm8.4 0v2.6h1.8v-2.6h2.5v-1.6h-2.5v-2.5h-1.8v2.5h-2.5v1.6zm8.4 0v2.6h1.8v-2.6h2.5v-1.6H400v-2.5h-2v2.5h-2.5v1.6zm8.4 0v2.6h1.8v-2.6h2.5v-1.6h-2.5v-2.5h-1.8v2.5H404v1.6zm8.4 0v2.6h1.8v-2.6h2.5v-1.6h-2.5v-2.5H415v2.5h-2.5v1.6zm8.4 0v2.6h1.8v-2.6h2.5v-1.6H425v-2.5h-1.8v2.5h-2.5v1.6zm8.4 0v2.6h1.8v-2.6h2.5v-1.6h-2.5v-2.5h-1.8v2.5h-2.5v1.6zm-277.2 16v2.6h1.8v-2.6h2.5v-1.6h-2.5v-2.5h-1.8v2.5H152v1.6zm8.4 0v2.6h1.8v-2.6h2.5v-1.6h-2.5v-2.5H163v2.5h-2.5v1.6zm8.4 0v2.6h1.8v-2.6h2.5v-1.6H173v-2.5h-1.8v2.5h-2.5v1.6zm8.4 0v2.6h1.8v-2.6h2.5v-1.6h-2.5v-2.5h-1.8v2.5h-2.5v1.6zm8.4 0v2.6h1.8v-2.6h2.5v-1.6H190v-2.5h-2v2.5h-2.5v1.6zm8.4 0v2.6h1.8v-2.6h2.5v-1.6h-2.5v-2.5h-1.8v2.5H194v1.6zm8.4 0v2.6h1.8v-2.6h2.5v-1.6h-2.5v-2.5H205v2.5h-2.5v1.6zm8.4 0v2.6h1.8v-2.6h2.5v-1.6H215v-2.5h-1.8v2.5h-2.5v1.6zm8.4 0v2.6h1.8v-2.6h2.5v-1.6h-2.5v-2.5h-1.8v2.5h-2.5v1.6zm8.4 0v2.6h1.8v-2.6h2.5v-1.6H232v-2.5h-2v2.5h-2.5v1.6zm8.4 0v2.6h1.8v-2.6h2.5v-1.6h-2.5v-2.5h-1.8v2.5H236v1.6zm8.4 0v2.6h1.8v-2.6h2.5v-1.6h-2.5v-2.5H247v2.5h-2.5v1.6zm8.4 0v2.6h1.8v-2.6h2.5v-1.6H257v-2.5h-1.8v2.5h-2.5v1.6zm8.4 0v2.6h1.8v-2.6h2.5v-1.6h-2.5v-2.5h-1.8v2.5h-2.5v1.6zm8.4 0v2.6h1.8v-2.6h2.5v-1.6H274v-2.5h-2v2.5h-2.5v1.6zm8.4 0v2.6h1.8v-2.6h2.5v-1.6h-2.5v-2.5h-1.8v2.5H278v1.6zm8.4 0v2.6h1.8v-2.6h2.5v-1.6h-2.5v-2.5H289v2.5h-2.5v1.6zm8.4 0v2.6h1.8v-2.6h2.5v-1.6H299v-2.5h-1.8v2.5h-2.5v1.6zm8.4 0v2.6h1.8v-2.6h2.5v-1.6h-2.5v-2.5h-1.8v2.5h-2.5v1.6zm8.4 0v2.6h1.8v-2.6h2.5v-1.6H316v-2.5h-2v2.5h-2.5v1.6zm8.4 0v2.6h1.8v-2.6h2.5v-1.6h-2.5v-2.5h-1.8v2.5H320v1.6zm8.4 0v2.6h1.8v-2.6h2.5v-1.6h-2.5v-2.5H331v2.5h-2.5v1.6zm8.4 0v2.6h1.8v-2.6h2.5v-1.6H341v-2.5h-1.8v2.5h-2.5v1.6zm8.4 0v2.6h1.8v-2.6h2.5v-1.6h-2.5v-2.5h-1.8v2.5h-2.5v1.6zm8.4 0v2.6h1.8v-2.6h2.5v-1.6H358v-2.5h-2v2.5h-2.5v1.6zm8.4 0v2.6h1.8v-2.6h2.5v-1.6h-2.5v-2.5h-1.8v2.5H362v1.6zm8.4 0v2.6h1.8v-2.6h2.5v-1.6h-2.5v-2.5H373v2.5h-2.5v1.6zm8.4 0v2.6h1.8v-2.6h2.5v-1.6H383v-2.5h-1.8v2.5h-2.5v1.6zm8.4 0v2.6h1.8v-2.6h2.5v-1.6h-2.5v-2.5h-1.8v2.5h-2.5v1.6zm8.4 0v2.6h1.8v-2.6h2.5v-1.6H400v-2.5h-2v2.5h-2.5v1.6zm139.5 6.8" transform="translate(131 16)"/>
  <path filter="url(#glitch)" fill="#dedede" d="M101.3 354h33.5q8.2 0 12.5 4.8t4.4 12.7q0 7.7-4.6 12.3-3.7 3.7-10.1 4.4l.4.9 5.4-1 8.7 16.7h-16.3l-7.7-14.7v-1.7h-11.4v16.4h-14.8zm29 24.1q3.2 0 4.9-1.6t1.8-4.8-1.8-5q-1.7-1.6-4.9-1.6h-14.2v13zm38.4-24h23.2l17.6 50.7h-15.3l-3.9-10.8h-21l-4 10.8h-15.2zm5.3 27.6h12l-4.6-14.1q-.5-1.3-.7-2.8-.3-1.6-.3-3v-1h-.9v1q0 1.4-.3 3-.2 1.5-.7 2.8zm36-27.7h41.6v11.7h-26.9v7.6h25.6V385h-25.6v19.8H210zm42.2 0h44.5v11.7h-29.8v7.7h29v11.7h-29v8h29.8v11.7h-44.5zm78 50.8h-14.8v-39.1h-18V354h50.8v11.7H326v.9h.7q1.5 0 2.5 1t1 2.4zm60.2-50.8h23.2l17.6 50.8H416l-4-10.8h-21l-4 10.8h-15.2zm5.3 27.7h12l-4.5-14.1q-.5-1.3-.8-2.8-.3-1.6-.2-3v-1h-1v1l-.2 3q-.3 1.5-.8 2.8zm36-27.7H464q10.1 0 13.7 3.1 3.7 3 3.8 9.4v.5q0 5.4-2.8 8-2 2-6.5 2.7v1q3.8.2 7.4 2.8t3.6 9.2q0 7.3-3.6 10.7-3.5 3.4-13.6 3.4h-34.4zm31.4 19q2.7 0 3.6-1 1-1.1 1-3.1t-.9-2.8-3.4-.8h-17.2v7.7zm.7 20.5q2.9 0 3.8-1.1t.9-4q0-2.6-1-3.8t-4.2-1.1h-17.1v10zM484 354h32.4q10.1 0 13.7 3.1 3.6 3 3.7 9.4v.5q0 5.4-2.7 8-2 2-6.6 2.7v1q3.9.2 7.5 2.8t3.6 9.2q0 7.3-3.6 10.7t-13.6 3.4H484zm31.5 19q2.6 0 3.6-1 1-1.1 1-3.1t-1-2.8-3.4-.8h-17.1v7.7zm.6 20.5q3 0 3.9-1.1t.9-4q0-2.6-1-3.8t-4.2-1.1h-17.1v10zm36-39.5h23.2l17.6 50.8h-15.3l-3.9-10.8h-21l-4 10.8h-15.2zm5.3 27.7h12l-4.6-14.1q-.5-1.3-.8-2.8l-.2-3v-1h-.9v1q0 1.4-.3 3-.2 1.5-.7 2.8zm59.8 23.4q-14.4 0-20.7-3.5-6.3-3.4-6.3-14.5H605q0 4.7 3.5 5.7 3.5 1.1 8.6 1.1t8.6-.6 3.5-3.5q0-3.1-4.9-3.6l-12.4-1.3q-11.7-1.3-16.6-4.2t-5-10q0-10.4 6.5-13.5 6.5-3.2 20-3.2 13.7 0 20.2 3.6t6.5 14.2h-14.7q0-4.5-3.7-5.5-3.7-1.1-8.4-1.1-5.3 0-8.8.6t-3.6 3.8 5.1 3.6l12.2 1.1q12.4 1.4 17.1 4.2 4.8 2.7 4.8 9.6 0 10.7-6.2 13.8t-20 3.2m37.6-13.3v1h28.7v12H644V354h14.7v34.3q0 1.6-1 2.6t-2.4 1zm29.8-37.8h14.6v50.8h-14.6zm-578.2 80.5q-1.8 0-3.1-.8-1.4-.7-2.1-2t-.8-3.2.8-3.1 2-2q1.4-.8 3.2-.8t3.2.7q1.3.8 2 2.1.8 1.3.8 3.1t-.7 3.2-2.1 2q-1.4.8-3.2.8m0-1.8q1.4 0 2.3-.5t1.3-1.3.5-2.4-.5-2.3-1.3-1.4-2.3-.4-2.2.4-1.4 1.4-.4 2.3.4 2.4 1.4 1.3 2.2.5m9.7 1.6h-1.8v-11.5h1.8zm7-4.6H115V428h8.4zm.3-5.3H115v-1.6h8.6zm3.8 9.9h-1.8v-11.5h1.8zm7-4.6H126V428h8.4zm.3-5.3H126v-1.6h8.6zm3.9 9.9h-1.9v-11.5h1.9zm7.3 0h-8.6v-1.7h8.6zm-.2-5h-8.4v-1.6h8.4zm.2-4.9h-8.6v-1.6h8.6zm3.8 9.9h-1.9v-11.5h2l5.2 6.7 1.5 2.1h.1v-8.8h1.8v11.5h-2l-5.2-6.7-1.4-2h-.2zm15.6.2q-1.7 0-2.9-.5t-1.7-1.4-.6-2v-.2h1.9v.3q0 .7.3 1.1t1 .7 2 .3q1.1 0 1.7-.2.7-.2 1-.5.3-.4.3-.9 0-.8-.5-1.1t-1.6-.6l-2.8-.4q-1-.2-1.7-.6-.8-.3-1.2-1t-.4-1.6q0-.6.3-1.2t.8-1 1.5-.8 2.3-.3q1.7 0 2.8.5t1.6 1.4.5 2v.1H168v-.2q0-.7-.3-1.2t-1-.7-2-.2q-1 0-1.6.2-.7.1-1 .5-.2.3-.2.8t.2.8.6.5l1.1.4 2.8.4q1.1.2 1.9.7t1.1 1 .4 1.5-.5 1.6-1.5 1.3-2.8.5m8.8-.2h-2v-11.5h1.9zm9 0h-2.7l-4.9-11.5h2.2l4 9.6h.2l3.9-9.6h2.2zm8.8 0h-1.9v-11.5h1.9zm7.3 0h-8.6v-1.7h8.6zm-.2-5h-8.4v-1.6h8.4zm.2-4.9h-8.6v-1.6h8.6zm9.2 10q-1.7 0-3-.4-1-.5-1.6-1.4t-.6-2v-.2h1.8v.3q0 .7.3 1.1t1 .7 2 .3 1.8-.2q.7-.2 1-.5.2-.4.2-.9 0-.8-.4-1.1t-1.6-.6l-2.8-.4q-1-.2-1.7-.6-.8-.3-1.2-1t-.4-1.6l.2-1.2q.3-.6.9-1t1.5-.8 2.3-.3q1.7 0 2.8.5t1.6 1.4.5 2v.1H211v-.2q0-.7-.3-1.2t-1-.7-1.9-.2q-1 0-1.7.2-.6.1-.9.5-.3.3-.3.8t.2.8.6.5l1.2.4 2.8.4q1.1.2 1.9.7t1.1 1 .4 1.5-.5 1.6-1.6 1.3-2.7.5m8.7-.1h-1.8v-11.5h1.8zm7.4 0h-8.7v-1.7h8.7zm-.3-5h-8.4v-1.6h8.4zm.3-4.9h-8.7v-1.6h8.7zm7.5 10q-1.8 0-3.1-.7t-2.1-2-.7-3.2.7-3.1 2-2 3.2-.8q1.6 0 2.9.5t2 1.6.6 2.4v.2h-2v-.2q0-1.3-.9-2t-2.6-.7q-1.3 0-2.2.4t-1.3 1.4q-.5.9-.5 2.3 0 1.5.5 2.4t1.3 1.3 2.2.5q1.8 0 2.6-.7t.9-2v-.3h2v.3q0 1.4-.7 2.4t-2 1.5-2.8.6m13 0q-1.8 0-3-.5t-1.8-1.7-.6-2.7V423h1.8v6.6q0 1.1.4 1.9.3.7 1.1 1t2 .4 2.1-.4q.8-.3 1.1-1 .4-.8.4-2V423h1.9v6.7q0 1.6-.7 2.7-.6 1-1.8 1.7t-3 .6m9.1-.1h-1.8v-11.5h6q1.2 0 2.2.4t1.4 1.1q.6.8.6 1.9t-.4 1.6-1.2 1.1-1.9.5q.7.2 1 .6l.8 1 1.9 3.3h-2.1l-1.9-3.2q-.2-.5-.5-.7-.3-.3-.8-.4t-1.2-.2h-2zm0-9.9v4h4.1q1.2 0 1.7-.4t.6-1.6-.6-1.5q-.5-.5-1.7-.5zm12.2 9.9h-1.9v-11.5h1.9zm8.1 0h-1.8v-11.5h1.8zm4.5-9.9H268v-1.6h11zm7.5 6h-1.7l-5.1-7.6h2.2l2.8 4 1 1.5 1-1.4 2.7-4.1h2.3zm0 3.9h-1.8v-5h1.9zm11.6 0H296v-11.5h6q1.3 0 2.2.4t1.5 1.1.5 1.9-.4 1.6q-.4.7-1.2 1.1t-1.8.5q.7.2 1 .6l.7 1 2 3.3h-2.2l-1.8-3.2-.6-.7q-.3-.3-.7-.4-.5-.2-1.2-.2h-2.1zm0-9.9v4h4q1.2 0 1.8-.4t.6-1.6-.6-1.5-1.7-.5zm12.1 9.9h-1.8v-11.5h1.8zm7.4 0h-8.6v-1.7h8.6zm-.3-5h-8.3V428h8.3zm.3-4.9h-8.6v-1.6h8.6zm6.7 10q-1.7 0-2.8-.4-1.2-.5-1.8-1.4-.5-.9-.5-2v-.2h1.8v.3q0 .7.3 1.1t1 .7 2 .3q1.1 0 1.8-.2l1-.5q.2-.4.2-.9 0-.8-.5-1.1t-1.5-.6l-2.8-.4q-1-.2-1.8-.6-.7-.3-1.1-1t-.5-1.6q0-.6.3-1.2t.9-1 1.5-.8 2.3-.3q1.7 0 2.7.5t1.7 1.4.5 2v.1h-1.9v-.2q0-.7-.3-1.2t-1-.7-1.9-.2q-1 0-1.7.2-.6.1-1 .5-.2.3-.2.8t.2.8.6.5l1.1.4 2.8.4q1.2.2 2 .7.7.4 1 1 .5.7.5 1.5t-.5 1.6-1.6 1.3q-1 .5-2.8.5m8.8-.1H331v-11.5h1.8zm7.4 0h-8.7V433h8.7zm-.3-5h-8.4v-1.6h8.4zm.3-4.9h-8.7v-1.6h8.7zm3 9.9h-2l5.2-11.5h2.6l5.1 11.5h-2l-3.7-8.2-.7-1.6h-.1l-.7 1.6zm8.2-3H344V430h7.6zm6.7 3h-1.8v-11.5h6q1.3 0 2.2.4t1.5 1.1.5 1.9-.4 1.6q-.4.7-1.2 1.1t-1.8.5q.6.2 1 .6l.7 1 2 3.3h-2.2l-1.8-3.2-.6-.7q-.3-.3-.8-.4t-1.1-.2h-2.2zm0-9.9v4h4.2q1.1 0 1.7-.4t.6-1.6-.6-1.5-1.7-.5zm16 10q-1.8 0-3.2-.7-1.3-.7-2-2-.8-1.4-.8-3.2t.8-3.1 2-2q1.4-.8 3.2-.8 1.6 0 2.8.5 1.3.6 2 1.6t.7 2.4v.2h-2v-.2q0-1.3-1-2-.8-.7-2.5-.7-1.4 0-2.3.4t-1.3 1.4-.4 2.3.4 2.4q.5.9 1.3 1.3 1 .5 2.3.5 1.7 0 2.6-.7.8-.7.8-2v-.3h2v.3q0 1.4-.6 2.4t-2 1.5-2.8.6m18-.1h-1.8v-11.5h1.9zm-8.6 0h-1.8v-11.5h1.8zm7.7-5h-9v-1.6h9zm5.2 5h-1.9v-11.5h1.9zm7.3 0h-8.6v-1.7h8.6zm-.2-5h-8.4v-1.6h8.4zm.2-4.9h-8.6v-1.6h8.6zm3.8 9.9h-1.8v-11.5h6q1.3 0 2.2.4t1.5 1.1.5 1.9-.4 1.6q-.4.7-1.2 1.1t-1.8.5q.6.2 1 .6l.7 1 1.9 3.3H414l-1.9-3.2q-.2-.5-.5-.7-.3-.3-.8-.4t-1.2-.2h-2zm0-9.9v4h4.1q1.2 0 1.8-.4.5-.5.5-1.6 0-1-.5-1.5t-1.8-.5zm17 10q-2.3 0-3.6-.8t-1.3-2.5q0-1.2.7-2 .8-.7 2-.8v-.2q-1.1-.2-1.7-.8t-.6-1.7q0-1.5 1.2-2.2 1-.7 3-.7h2.5v1.6H424q-1.1 0-1.6.4t-.5 1.3.6 1.2 1.6.3h7.4v1.6h-7.8q-1 0-1.6.4t-.6 1.4q0 .7.3 1 .3.5 1 .7t1.8.2 2-.3q.6-.2 1-.7.2-.5.2-1.4v-4.6h1.8v4.5q0 1.3-.5 2.2t-1.7 1.5q-1 .5-2.9.5m16.2 0q-1.7 0-2.8-.4-1.2-.5-1.8-1.4-.5-.9-.5-2v-.2h1.8v.3q0 .7.3 1.1t1 .7 2 .3q1.1 0 1.8-.2l1-.5q.2-.4.2-.9 0-.8-.5-1.1t-1.5-.6l-2.8-.4q-1-.2-1.8-.6-.7-.3-1.1-1t-.5-1.6q0-.6.3-1.2t.9-1 1.5-.8 2.3-.3q1.7 0 2.7.5t1.7 1.4.5 2v.1h-1.9v-.2q0-.7-.3-1.2t-1-.7-1.9-.2q-1 0-1.7.2-.6.1-1 .5-.2.3-.2.8t.2.8.6.5l1.1.4 2.8.4q1.2.2 2 .7.7.4 1 1 .5.7.5 1.5t-.5 1.6-1.6 1.3q-1 .5-2.8.5m8.8-.1h-1.8v-11.5h1.8zm7.4 0h-8.7v-1.7h8.7zm-.3-5h-8.4v-1.6h8.4zm.3-4.9h-8.7v-1.6h8.7zm3.7 9.9H459v-11.5h2l5.1 6.7 1.5 2.1h.2l-.1-2v-6.8h1.8V435h-2l-5.1-6.7-1.5-2h-.1v8.7m12.7 0h-1.9v-11.5h1.9zm8 .2q-1.8 0-3.1-.8-1.4-.7-2.1-2t-.8-3.2.8-3.1 2-2 3.2-.8 3.2.7 2.1 2.1.7 3.1-.7 3.2-2 2-3.3.8m0-1.8q1.4 0 2.3-.5t1.3-1.3.5-2.4-.5-2.3-1.3-1.4-2.3-.4-2.2.4q-1 .5-1.4 1.4t-.4 2.3.4 2.4 1.4 1.3 2.2.5m9.7 1.6h-1.8v-11.5h6q1.3 0 2.2.4t1.5 1.1.5 1.9-.4 1.6q-.4.7-1.2 1.1t-1.8.5q.6.2 1 .6l.7 1 1.9 3.3h-2.1l-1.9-3.2q-.2-.5-.5-.7-.3-.3-.8-.4t-1.2-.2h-2zm0-9.9v4h4.1q1.2 0 1.8-.4t.6-1.6-.6-1.5-1.8-.5zm17.6 10q-1.7 0-2.9-.4t-1.7-1.4-.6-2v-.2h1.8v.3q0 .7.4 1.1.3.5 1 .7.7.3 2 .3 1 0 1.7-.2t1-.5.3-.9q0-.8-.5-1.1t-1.6-.6l-2.8-.4q-1-.2-1.7-.6-.8-.3-1.2-1t-.4-1.6q0-.6.3-1.2t.8-1 1.5-.8 2.3-.3q1.7 0 2.8.5t1.6 1.4.5 2v.1h-1.8v-.2q0-.7-.3-1.2t-1-.7-2-.2q-1 0-1.6.2-.7.1-1 .5-.3.3-.3.8t.2.8.7.5l1 .4 2.9.4q1.1.2 1.9.7t1.1 1 .4 1.5-.5 1.6-1.6 1.3-2.7.5m12.5 0q-1.7 0-3.1-.7-1.3-.7-2-2-.8-1.4-.8-3.2t.7-3.1 2.1-2q1.4-.8 3.1-.8 1.9 0 3.2.7 1.4.8 2.1 2.1t.8 3.1-.8 3.2q-.7 1.3-2 2-1.4.8-3.3.8m0-1.7q1.4 0 2.3-.5 1-.4 1.4-1.3t.4-2.4-.4-2.3q-.5-1-1.4-1.4t-2.3-.4q-1.3 0-2.2.4t-1.3 1.4q-.5.9-.5 2.3 0 1.5.5 2.4t1.3 1.3 2.2.5m9.7 1.6h-1.8v-11.5h1.8zm7-4.6h-8.2V428h8.3zm.3-5.3h-8.5v-1.6h8.5zm7.7 9.9h-1.8v-11.5h1.8zm4.6-9.9h-11v-1.6h11zm6.7 9.9h-2.7l-3-11.5h2l1.9 7.3.5 2.4h.1l.7-2.4 2.3-7.3h2.7l2.5 7.3.6 2.4h.1l.5-2.4 1.7-7.3h2l-2.8 11.5h-2.7l-2.4-6.7-.8-3h-.2l-.8 3zm15.4 0h-2l5-11.5h2.7l5 11.5h-2l-3.6-8.2-.7-1.6h-.1l-.7 1.6zm8.1-3h-7.6v-1.7h7.6zm6.7 3h-1.8v-11.5h6q1.3 0 2.2.4t1.5 1.1.5 1.9-.4 1.6q-.4.7-1.2 1.1t-1.8.5q.6.2 1 .6l.7 1 2 3.3H594l-2-4.2q-.2-.5-.5-.7-.3-.3-.8-.4t-1.1-.2h-2.2zm0-9.9v4h4.1q1.2 0 1.8-.4t.6-1.6-.6-1.5-1.8-.5zm12.2 9.9h-1.8v-11.5h1.8zm7.4 0h-8.7v-1.7h8.7zm-.3-5h-8.4v-1.6h8.4zm.3-4.9h-8.7v-1.6h8.7zm6.1 9.9h-1.8v-11.5h1.8zm7.4 0H612v-1.7h8.6zm-.3-5H612v-1.6h8.3zm.3-4.9H612v-1.6h8.6zm3.8 9.9h-1.9v-11.5h2l5.2 6.7 1.4 2.1h.2l-.1-2v-6.8h1.9v11.5h-2l-5.2-6.7-1.5-2h-.1zm16 .2q-1.6 0-3-.8-1.2-.7-1.9-2t-.7-3.2.8-3.1 2-2 3.3-.8q1.6 0 2.9.5t2 1.5.6 2.3v.2h-2v-.2q0-1.2-.9-1.9t-2.6-.6q-1.4 0-2.3.4-1 .5-1.4 1.4t-.4 2.3.4 2.4 1.3 1.3 2.3.5 2.2-.3 1.2-.9.4-1.5v-.4h1.8v.3l-1.5 1.9h-.3q-.2.8-.8 1.4-.5.6-1.4 1-.8.3-2 .3m6-.2h-1.7v-3l-.1-.2v-2.5h1.8zm0-4.5h-6v-1.4h6zm4.3 4.5h-1.9v-11.5h1.9zm4.2 0H653v-11.5h2l5.1 6.7 1.5 2.1h.2l-.1-2v-6.8h1.8v11.5h-2l-5.1-6.7-1.5-2h-.1zm12.7 0h-1.9v-11.5h1.9zm7.3 0h-8.6v-1.7h8.6zm-.2-5h-8.4v-1.6h8.4zm.2-4.9h-8.6v-1.6h8.6zm3.8 9.9h-1.8v-11.5h1.8zm7.4 0h-8.7v-1.7h8.7zm-.3-5h-8.4v-1.6h8.4zm.3-4.9h-8.7v-1.6h8.7zm3.7 9.9H688v-11.5h6q1.3 0 2.2.4t1.5 1.1.5 1.9-.4 1.6q-.4.7-1.2 1.1t-1.8.5q.6.2 1 .6l.7 1 2 3.3h-2.2l-1.9-3.2q-.2-.5-.5-.7-.3-.3-.8-.4t-1.1-.2h-2.2zm0-9.9v4h4.1q1.2 0 1.8-.4t.6-1.6-.6-1.5-1.8-.5z"/>
</svg>
